<svg xmlns="http://www.w3.org/2000/svg" width="242" height="44" viewBox="0 0 242 44">
    <g fill="none" fill-rule="nonzero">
        <path fill="#FFF" d="M21.828 9.695l-1.617 5.698H16.14l-2.662 9.57c-.836 2.94-.992 3.652 2.924 4.05l-1.566 5.668-6.209.347c-8.228.478-9.735-1.645-7.964-7.96l3.225-11.672H2.378l1.615-5.698H5.5l1.355-4.876 12.989-2.655-2.09 7.528h4.074zm24.376-.565c4.592-.077 8.09 1.547 6.523 7.247l-2.611 9.372c-.678 2.42-.678 2.737.524 3.293l-1.567 5.58H36.001c.05-1.57-.262-1.45 1.25-6.812l.259-.952 2.03-7.304c.366-1.272.834-3.217-2.083-3.454-.521 0-1.04.079-1.615.277l-2.62 9.372c-.682 2.261-.84 2.697.577 3.293l-1.576 5.58H16.951l1.566-5.58c1.77-.675 1.875-1.271 2.394-3.137l4.583-16.377c.415-1.66.675-2.728-.678-3.282L26.378.67h13.838l-2.81 10.085c1.77-.713 4.218-1.584 8.798-1.624V9.13zm8.708 9.856l-1.877 6.767c-.519 1.901-.831 3.445-.675 4.633.469 3.718 4.53 5.025 14.313 4.986 4.957-.038 10.111-1.265 13.706-3.206l1.773-6.254H69.86l-.26.91c-.78 2.812-2.24 2.772-3.082 2.733-2.004-.04-1.951-1.188-1.476-2.851l.631-2.297H82.57l1.672-5.9c2.088-7.555-2.611-9.14-12.3-9.14-13.127 0-15.47 4.117-17.03 9.617v.002zm17.186-.28h-4.791c.886-3.159 1.77-3.559 3.333-3.52 2.187.04 2.03 1.481 1.458 3.52z"/>
        <path fill="#FABB00" d="M113.645 43.89l1.74-6.083H81.742l-1.738 6.083z"/>
        <path fill="#FFF" d="M106.28 7.315c-2.926-.04-3.654 2.5-3.498 3.33.365 1.985 6.63 2.698 9.92 3.609 6.525 1.826 7.414 5.157 6.16 9.52l-.053.158c-1.985 7.09-7.621 11.32-20.289 11.36-6.723.04-11.79-1.188-15.133-3.56l2.508-9.107h13.558c-.207.871-.466 1.703-.673 2.536-.26.874-.779 2.775 2.127 2.816 1.039.04 2.761-.435 3.441-2.618.94-3.093-1.095-3.647-6.71-4.719-5.423-1.071-11.17-2.338-8.976-10.232C90.651 3.322 96.552 0 107.64 0c6.528 0 11.278.906 15.506 3.557l-2.244 8h-13.002l.158-.636c.73-2.618.26-3.569-1.775-3.608l-.002.002zm34.256 9.625c.334-1.175.39-1.93.055-2.35-.22-.418-.722-.629-1.61-.629-1.835 0-2.557.462-3.333 3.316l-2.365 8.432c-.825 3.02-.22 3.4 1.43 3.441 1.544 0 2.545-.462 3.601-4.237l.39-1.386h12.273l-2.275 8.188c-3.555 2.187-8.668 3.575-16.354 3.617-13.024.042-13.524-4.457-12.083-9.706l2.497-8.811c1.553-5.544 4.884-8.992 16.995-9.036 7.724-.042 11.997 1.43 14.714 3.28l-1.998 7.225h-12.267l.22-.84.112-.502-.002-.002zm42.541 7.764l1.943-6.884c2.108-7.52-.277-10.127-13.594-10.043-13.13.084-15.571 3.322-17.459 10.043l-1.94 6.882c-2.387 8.441.11 10.67 12.973 10.626 11.752-.04 15.75-2.396 18.077-10.626v.002zm-18.244.836l2.1-7.636c.665-2.222 1.165-3.987 3.607-3.945 1.608 0 2.274.715 1.33 3.945l-2.107 7.636c-1.056 3.691-2.222 3.652-3.549 3.608-2.32-.042-2.098-1.175-1.381-3.608zm44.042-17.827l1.496.128-2.495 9.037c-4.715 0-6.877.968-8.043 5.054l-.722 2.57c-.442 1.64-1.775 3.242.667 4.377l-1.664 5.923H181.58l1.666-6.006c.776-.295 1.775-.59 2.607-3.496l2.11-7.495c.609-2.229.719-2.693-.612-3.492l1.663-6.01h14.036l-.61 2.1c2.333-2.186 3.996-2.69 6.436-2.69zm.558 10.217l-1.997 7.19c-.555 2.015-.889 3.652-.722 4.914.5 3.954 4.827 5.34 15.233 5.298 5.28-.042 10.771-1.344 14.6-3.406l1.885-6.64h-13.095l-.277.969c-.832 2.979-2.385 2.937-3.278 2.895-2.125-.042-2.068-1.26-1.566-3.023l.67-2.437h17.99l1.775-6.264c2.218-7.964-2.772-9.647-13.094-9.647-13.963 0-16.458 4.374-18.124 10.151zm18.291-.295h-5.104c.944-3.298 1.886-3.716 3.551-3.674 2.332.044 2.165 1.545 1.553 3.674z"/>
    </g>
</svg>
