<svg width="32" height="32" viewBox="0 0 32 32" fill="none" xmlns="http://www.w3.org/2000/svg">
<path d="M24.9581 32.0004L26.2472 27.5654H1.28908L0 32.0004H24.9581Z" fill="#FFBF00"/>
<path d="M19.4912 5.33137C17.3248 5.30208 16.7817 7.15341 16.8951 7.76271C17.1637 9.2098 21.8127 9.73122 24.2536 10.3932C29.0937 11.7232 29.7502 14.1545 28.8251 17.3299L28.7833 17.4471C27.3093 22.6144 23.1317 25.7019 13.7321 25.7312C8.74288 25.7605 4.98903 24.8641 2.50635 23.1358L4.36836 16.4921H14.4244C14.2692 17.1307 14.0783 17.7341 13.9231 18.3434C13.7321 18.982 13.3442 20.3647 15.4986 20.394C16.2685 20.4233 17.5456 20.0776 18.0529 18.484C18.7512 16.2285 17.2413 15.8242 13.0756 15.045C9.05322 14.2658 4.79208 13.3402 6.42134 7.58696C7.89543 2.41962 12.2759 0 20.4998 0C25.3398 0 28.8669 0.662028 32.0001 2.59538L30.335 8.4306H20.6908L20.8042 7.96777C21.3532 6.05785 21.0011 5.36067 19.4912 5.33137Z" fill="#003976"/>
</svg>
